# xmcd
#
# Track frame offsets: 
#        150
#        20917
#        36442
#        54150
#        70435
#        96098
#        110394
#        122137
#        135954
#        155281
#        172892
#
# Disc length: 2649 seconds
#
# Revision: 1
# Processed by: cddbd v1.5.2PL0 Copyright (c) Steve Scherf et al.
# Submitted via: ExactAudioCopy v1.3
#
DISCID=8d0a570b
DTITLE=Eric Steckel - Black Gold
DYEAR=2015
DGENRE=Blues Rock
TTITLE0=Holding On
TTITLE1=Juke Joint
TTITLE2=El Camino
TTITLE3=Fugitive
TTITLE4=My Darkest Hour
TTITLE5=Speed of Light
TTITLE6=Texas 1983
TTITLE7=Outta My Mind
TTITLE8=What It Means (To Be Alone)
TTITLE9=Rocket Fuel
TTITLE10=If I Ain't Got You
EXTD=
EXTT0=
EXTT1=
EXTT2=
EXTT3=
EXTT4=
EXTT5=
EXTT6=
EXTT7=
EXTT8=
EXTT9=
EXTT10=
PLAYORDER=
